<svg width="60" height="60" viewBox="0 0 60 60" fill="none" xmlns="http://www.w3.org/2000/svg">
  <path d="M54 6C50.6863 2.68629 45.3137 2.68629 42 6L12 36L6 54L24 48L54 18C57.3137 14.6863 57.3137 9.31371 54 6ZM45 9C46.9706 7.02944 50.0294 7.02944 52 9C53.9706 10.9706 53.9706 14.0294 52 16L49 19L41 11L44 8L45 9ZM21.9023 44.4023L15.5977 38.0977L40.0977 13.5977L46.4023 19.9023L21.9023 44.4023ZM13.8477 40.8477L19.1523 46.1523L11.8477 48.1523L13.8477 40.8477Z" fill="#2091F9"/>
  <path d="M6 36C6 36 12 42 24 36C36 30 42 36 42 36" stroke="#2091F9" stroke-width="4" stroke-linecap="round"/>
</svg>
